<mxfile host="app.diagrams.net" modified="2023-09-04T16:49:58.102Z" agent="Mozilla/5.0 (Windows NT 10.0; Win64; x64) AppleWebKit/537.36 (KHTML, like Gecko) Chrome/116.0.0.0 Safari/537.36" etag="BPV6TTA0iO_2LxgHvx0I" version="21.7.2" type="device">
  <diagram name="Seite-1" id="UlLkmI8PDqKPkpy-l_wX">
    <mxGraphModel dx="697" dy="492" grid="1" gridSize="10" guides="1" tooltips="1" connect="1" arrows="1" fold="1" page="1" pageScale="1" pageWidth="1654" pageHeight="1169" math="1" shadow="0">
      <root>
        <mxCell id="0" />
        <mxCell id="1" parent="0" />
        <mxCell id="sJz2mVrj8f4c4Sv1XL4x-5" style="edgeStyle=orthogonalEdgeStyle;rounded=0;orthogonalLoop=1;jettySize=auto;html=1;exitX=1;exitY=0.5;exitDx=0;exitDy=0;" edge="1" parent="1" source="sJz2mVrj8f4c4Sv1XL4x-3">
          <mxGeometry relative="1" as="geometry">
            <mxPoint x="245" y="60" as="sourcePoint" />
            <mxPoint x="200" y="60" as="targetPoint" />
          </mxGeometry>
        </mxCell>
        <mxCell id="sJz2mVrj8f4c4Sv1XL4x-3" value="$$H(u,v)$$" style="rounded=0;whiteSpace=wrap;html=1;" vertex="1" parent="1">
          <mxGeometry x="90" y="40" width="70" height="40" as="geometry" />
        </mxCell>
        <mxCell id="sJz2mVrj8f4c4Sv1XL4x-14" style="edgeStyle=orthogonalEdgeStyle;rounded=0;orthogonalLoop=1;jettySize=auto;html=1;entryX=0;entryY=0.5;entryDx=0;entryDy=0;" edge="1" parent="1" target="sJz2mVrj8f4c4Sv1XL4x-3">
          <mxGeometry relative="1" as="geometry">
            <mxPoint x="59.999999999999886" y="60.000000000000114" as="sourcePoint" />
          </mxGeometry>
        </mxCell>
        <mxCell id="sJz2mVrj8f4c4Sv1XL4x-19" value="$$f(x,y)$$" style="text;html=1;strokeColor=none;fillColor=none;align=center;verticalAlign=middle;whiteSpace=wrap;rounded=0;fontSize=11;" vertex="1" parent="1">
          <mxGeometry x="30" y="30" width="60" height="30" as="geometry" />
        </mxCell>
        <mxCell id="sJz2mVrj8f4c4Sv1XL4x-20" value="$$g(x,y)$$" style="text;html=1;strokeColor=none;fillColor=none;align=center;verticalAlign=middle;whiteSpace=wrap;rounded=0;fontSize=11;" vertex="1" parent="1">
          <mxGeometry x="170" y="30" width="60" height="30" as="geometry" />
        </mxCell>
      </root>
    </mxGraphModel>
  </diagram>
</mxfile>
